<?xml version="1.0" encoding="UTF-8"?>
<svg width="256px" height="256px" viewBox="0 0 256 256" version="1.1" xmlns="http://www.w3.org/2000/svg" xmlns:xlink="http://www.w3.org/1999/xlink">
    <!-- Generator: Sketch 41 (35326) - http://www.bohemiancoding.com/sketch -->
    <title>1</title>
    <desc>Created with Sketch.</desc>
    <defs></defs>
    <g id="Page-1" stroke="none" stroke-width="1" fill="none" fill-rule="evenodd">
        <g id="1" fill="#000000">
            <path d="M88.3207686,183.260056 C68.4704278,163.393077 38.294209,133.191565 38.294209,133.191565 C34.4374201,129.830865 32,124.882824 32,119.365493 C32,109.241158 40.2073954,101.033762 50.3317308,101.033762 C56.1628312,101.033762 61.3580497,103.756297 64.715581,107.99956 C64.715581,107.99956 70.0443064,113.330896 88.3556936,131.639673 C106.667081,149.948449 103.952337,149.999078 122.266225,131.559455 C147.703103,106.122577 185.831,67.9946802 185.831,67.9946802 C189.191901,64.1304488 194.144807,61.6876086 199.668269,61.6876086 C209.792605,61.6876086 218,69.895004 218,80.0193394 C218,85.5428013 215.55716,90.4957074 211.692928,93.8566087 C211.692928,93.8566087 156.894809,148.654728 122.255,183.294537 C110.055692,194.963506 99.7601037,193.981657 88.3207686,183.260056 Z" id="Combined-Shape"></path>
        </g>
    </g>
</svg>