<?xml version="1.0" encoding="UTF-8"?>
<svg width="256px" height="256px" viewBox="0 0 256 256" version="1.1" xmlns="http://www.w3.org/2000/svg" xmlns:xlink="http://www.w3.org/1999/xlink">
    <!-- Generator: Sketch 41 (35326) - http://www.bohemiancoding.com/sketch -->
    <title>2</title>
    <desc>Created with Sketch.</desc>
    <defs></defs>
    <g id="Page-1" stroke="none" stroke-width="1" fill="none" fill-rule="evenodd">
        <g id="2">
            <circle id="Combined-Shape" fill="#000000" cx="128.5" cy="128.5" r="85.5"></circle>
            <path d="M105.224078,162.875146 L74.8247614,132.450348 C72.4811314,130.408173 71,127.401429 71,124.048748 C71,117.896559 75.9873351,112.909224 82.1395247,112.909224 C85.6828719,112.909224 88.8398168,114.563609 90.8800662,117.142085 C90.8800662,117.142085 94.1181384,120.381744 105.245301,131.50732 C116.372464,142.632896 114.722813,142.663662 125.851495,131.458575 C141.308559,116.001511 164.477492,92.8325775 164.477492,92.8325775 C166.519789,90.4844249 169.52949,89 172.885896,89 C179.038086,89 184.025421,93.9873351 184.025421,100.139525 C184.025421,103.495931 182.540996,106.505632 180.192844,108.547929 C180.192844,108.547929 146.894024,141.846749 125.844674,162.896098 C118.431599,169.986906 112.175345,169.390272 105.224078,162.875146 Z" id="Combined-Shape" fill="#FFFFFF"></path>
        </g>
    </g>
</svg>