<?xml version="1.0" encoding="UTF-8"?>
<svg width="256px" height="256px" viewBox="0 0 256 256" version="1.1" xmlns="http://www.w3.org/2000/svg" xmlns:xlink="http://www.w3.org/1999/xlink">
    <!-- Generator: Sketch 41 (35326) - http://www.bohemiancoding.com/sketch -->
    <title>4</title>
    <desc>Created with Sketch.</desc>
    <defs></defs>
    <g id="Page-1" stroke="none" stroke-width="1" fill="none" fill-rule="evenodd">
        <g id="4" fill="#000000">
            <path d="M70.0681334,146.803603 C80.7201298,146.803603 89.355279,138.384709 89.355279,127.999477 C89.355279,117.614244 80.7201298,109.19535 70.0681334,109.19535 C59.416137,109.19535 50.7809878,117.614244 50.7809878,127.999477 C50.7809878,138.384709 59.416137,146.803603 70.0681334,146.803603 Z M128.104724,146.803603 C138.75672,146.803603 147.391869,138.384709 147.391869,127.999477 C147.391869,117.614244 138.75672,109.19535 128.104724,109.19535 C117.452727,109.19535 108.817578,117.614244 108.817578,127.999477 C108.817578,138.384709 117.452727,146.803603 128.104724,146.803603 Z M185.43355,146.803603 C196.085547,146.803603 204.720696,138.384709 204.720696,127.999477 C204.720696,117.614244 196.085547,109.19535 185.43355,109.19535 C174.781554,109.19535 166.146405,117.614244 166.146405,127.999477 C166.146405,138.384709 174.781554,146.803603 185.43355,146.803603 Z" id="Combined-Shape"></path>
        </g>
    </g>
</svg>